<svg width="385" height="385" viewBox="0 0 385 385" fill="none" xmlns="http://www.w3.org/2000/svg">
<path d="M0 92.1103C0 41.2392 41.2392 0 92.1103 0H292.491C343.362 0 384.601 41.2392 384.601 92.1103V292.491C384.601 343.362 343.362 384.601 292.491 384.601H92.1103C41.2392 384.601 0 343.362 0 292.491V92.1103Z" fill="#111032"/>
<path d="M127.903 269.403C124.008 278.524 119.889 287.96 115.608 297.77C111.222 307.821 106.664 318.264 102 329.163C168.196 297.338 210.422 282.691 272.633 298.487C277.036 280.054 279.914 263.497 281 248.444C222.185 241.743 188.696 246.001 127.903 269.403Z" fill="#21C9D2"/>
<path d="M279.223 210.354C276.735 197.551 272.14 185.952 265.157 175.166C221.885 171.898 197.903 175.804 155.634 193.02C152.36 205.855 147.97 219.065 142.738 232.916C198.551 214.146 221.15 211.527 279.223 210.354Z" fill="#2F91D9"/>
<path d="M155.043 99.7352C197.053 117.686 227.144 134.833 247.404 154.07C210.519 154.402 198.296 156.17 160.28 170.155C163.747 146.517 162.619 123.648 155.043 99.7352Z" fill="#3649E2"/>
<path d="M236.845 63.947C208.725 49.2483 183.802 92.0663 152.487 77.3676V55C183.163 77.3676 208.725 42.2718 236.845 63.947Z" fill="#6953E8"/>
</svg>
